{
	"asset":{
		"generator":"Khronos glTF Blender I/O v4.4.55",
		"version":"2.0"
	},
	"scene":0,
	"scenes":[
		{
			"name":"Scene",
			"nodes":[
				3
			]
		}
	],
	"nodes":[
		{
			"mesh":0,
			"name":"LanternPole_Body",
			"translation":[
				-3.8231542110443115,
				13.016030311584473,
				0
			]
		},
		{
			"mesh":1,
			"name":"LanternPole_Chain",
			"translation":[
				-9.582000732421875,
				21.037872314453125,
				0
			]
		},
		{
			"mesh":2,
			"name":"LanternPole_Lantern",
			"translation":[
				-9.58200740814209,
				18.009151458740234,
				0
			]
		},
		{
			"children":[
				0,
				1,
				2
			],
			"name":"Lantern",
			"rotation":[
				0,
				1,
				0,
				0
			]
		}
	],
	"materials":[
		{
			"emissiveFactor":[
				1,
				1,
				1
			],
			"emissiveTexture":{
				"index":0
			},
			"name":"LanternPost_Mat",
			"normalTexture":{
				"index":1
			},
			"pbrMetallicRoughness":{
				"baseColorTexture":{
					"index":2
				},
				"metallicRoughnessTexture":{
					"index":3
				}
			}
		},
		{
			"doubleSided":true,
			"name":"Material2",
			"pbrMetallicRoughness":{
				"baseColorFactor":[
					0.800000011920929,
					0.800000011920929,
					0.800000011920929,
					1
				],
				"metallicFactor":0,
				"roughnessFactor":0.5
			}
		},
		{
			"doubleSided":true,
			"name":"Material1",
			"pbrMetallicRoughness":{
				"baseColorFactor":[
					0.800000011920929,
					0.800000011920929,
					0.800000011920929,
					1
				],
				"metallicFactor":0,
				"roughnessFactor":0.5
			}
		}
	],
	"meshes":[
		{
			"name":"LanternPole_Body",
			"primitives":[
				{
					"attributes":{
						"POSITION":0,
						"NORMAL":1,
						"TEXCOORD_0":2
					},
					"indices":3,
					"material":0
				}
			]
		},
		{
			"name":"LanternPole_Chain",
			"primitives":[
				{
					"attributes":{
						"POSITION":4,
						"NORMAL":5,
						"TEXCOORD_0":6
					},
					"indices":7,
					"material":1
				}
			]
		},
		{
			"name":"LanternPole_Lantern",
			"primitives":[
				{
					"attributes":{
						"POSITION":8,
						"NORMAL":9,
						"TEXCOORD_0":10
					},
					"indices":11,
					"material":2
				}
			]
		}
	],
	"textures":[
		{
			"sampler":0,
			"source":0
		},
		{
			"sampler":0,
			"source":1
		},
		{
			"sampler":0,
			"source":2
		},
		{
			"sampler":0,
			"source":3
		}
	],
	"images":[
		{
			"mimeType":"image/png",
			"name":"Lantern_emissive",
			"uri":"Lantern_emissive.png"
		},
		{
			"mimeType":"image/png",
			"name":"Lantern_normal",
			"uri":"Lantern_normal.png"
		},
		{
			"mimeType":"image/png",
			"name":"Lantern_baseColor",
			"uri":"Lantern_baseColor.png"
		},
		{
			"mimeType":"image/png",
			"name":"Lantern_roughnessMetallic",
			"uri":"Lantern_roughnessMetallic.png"
		}
	],
	"accessors":[
		{
			"bufferView":0,
			"componentType":5126,
			"count":926,
			"max":[
				7.745599269866943,
				12.832109451293945,
				2.3157098293304443
			],
			"min":[
				-7.745599269866943,
				-12.832109451293945,
				-2.3157098293304443
			],
			"type":"VEC3"
		},
		{
			"bufferView":1,
			"componentType":5126,
			"count":926,
			"type":"VEC3"
		},
		{
			"bufferView":2,
			"componentType":5126,
			"count":926,
			"type":"VEC2"
		},
		{
			"bufferView":3,
			"componentType":5123,
			"count":2616,
			"type":"SCALAR"
		},
		{
			"bufferView":4,
			"componentType":5126,
			"count":756,
			"max":[
				0.12920807301998138,
				0.6523504257202148,
				0.12920807301998138
			],
			"min":[
				-0.12920807301998138,
				-0.6523504257202148,
				-0.12920807301998138
			],
			"type":"VEC3"
		},
		{
			"bufferView":5,
			"componentType":5126,
			"count":756,
			"type":"VEC3"
		},
		{
			"bufferView":6,
			"componentType":5126,
			"count":756,
			"type":"VEC2"
		},
		{
			"bufferView":7,
			"componentType":5123,
			"count":3744,
			"type":"SCALAR"
		},
		{
			"bufferView":8,
			"componentType":5126,
			"count":2531,
			"max":[
				1.034082293510437,
				2.5292809009552,
				1.034084677696228
			],
			"min":[
				-1.034082293510437,
				-2.5292809009552,
				-1.034084677696228
			],
			"type":"VEC3"
		},
		{
			"bufferView":9,
			"componentType":5126,
			"count":2531,
			"type":"VEC3"
		},
		{
			"bufferView":10,
			"componentType":5126,
			"count":2531,
			"type":"VEC2"
		},
		{
			"bufferView":11,
			"componentType":5123,
			"count":9822,
			"type":"SCALAR"
		}
	],
	"bufferViews":[
		{
			"buffer":0,
			"byteLength":11112,
			"byteOffset":0,
			"target":34962
		},
		{
			"buffer":0,
			"byteLength":11112,
			"byteOffset":11112,
			"target":34962
		},
		{
			"buffer":0,
			"byteLength":7408,
			"byteOffset":22224,
			"target":34962
		},
		{
			"buffer":0,
			"byteLength":5232,
			"byteOffset":29632,
			"target":34963
		},
		{
			"buffer":0,
			"byteLength":9072,
			"byteOffset":34864,
			"target":34962
		},
		{
			"buffer":0,
			"byteLength":9072,
			"byteOffset":43936,
			"target":34962
		},
		{
			"buffer":0,
			"byteLength":6048,
			"byteOffset":53008,
			"target":34962
		},
		{
			"buffer":0,
			"byteLength":7488,
			"byteOffset":59056,
			"target":34963
		},
		{
			"buffer":0,
			"byteLength":30372,
			"byteOffset":66544,
			"target":34962
		},
		{
			"buffer":0,
			"byteLength":30372,
			"byteOffset":96916,
			"target":34962
		},
		{
			"buffer":0,
			"byteLength":20248,
			"byteOffset":127288,
			"target":34962
		},
		{
			"buffer":0,
			"byteLength":19644,
			"byteOffset":147536,
			"target":34963
		}
	],
	"samplers":[
		{
			"magFilter":9729,
			"minFilter":9987
		}
	],
	"buffers":[
		{
			"byteLength":167180,
			"uri":"Lantern.bin"
		}
	]
}
