{
	"asset":{
		"generator":"Khronos glTF Blender I/O v4.4.56",
		"version":"2.0"
	},
	"scene":0,
	"scenes":[
		{
			"name":"Scene",
			"nodes":[
				6
			]
		}
	],
	"nodes":[
		{
			"mesh":0,
			"name":"Arch",
			"scale":[
				100,
				100,
				100
			]
		},
		{
			"mesh":1,
			"name":"Cabinet",
			"scale":[
				100,
				100,
				100
			]
		},
		{
			"mesh":2,
			"name":"Chair",
			"scale":[
				100,
				100,
				100
			]
		},
		{
			"name":"Floor",
			"scale":[
				100,
				100,
				100
			]
		},
		{
			"mesh":3,
			"name":"poster",
			"scale":[
				100,
				100,
				100
			]
		},
		{
			"name":"Texture Group",
			"scale":[
				100,
				100,
				100
			]
		},
		{
			"children":[
				0,
				1,
				2,
				3,
				4,
				5
			],
			"name":"RootNode"
		}
	],
	"materials":[
		{
			"name":"CheckerTile",
			"normalTexture":{
				"index":0
			},
			"pbrMetallicRoughness":{
				"baseColorTexture":{
					"index":1
				},
				"metallicRoughnessTexture":{
					"index":2
				}
			}
		},
		{
			"emissiveFactor":[
				1,
				1,
				1
			],
			"emissiveTexture":{
				"index":3
			},
			"name":"Cabinet",
			"normalTexture":{
				"index":4
			},
			"pbrMetallicRoughness":{
				"baseColorFactor":[
					0.800000011920929,
					0.800000011920929,
					0.800000011920929,
					1
				],
				"baseColorTexture":{
					"index":5
				},
				"metallicRoughnessTexture":{
					"index":6
				}
			}
		},
		{
			"name":"Chair_Orange",
			"normalTexture":{
				"index":7
			},
			"pbrMetallicRoughness":{
				"baseColorTexture":{
					"index":8
				},
				"metallicRoughnessTexture":{
					"index":9
				}
			}
		},
		{
			"name":"Chair_Blue",
			"normalTexture":{
				"index":10
			},
			"pbrMetallicRoughness":{
				"baseColorTexture":{
					"index":11
				},
				"metallicRoughnessTexture":{
					"index":12
				}
			}
		},
		{
			"name":"Poster",
			"pbrMetallicRoughness":{
				"baseColorTexture":{
					"index":13
				},
				"metallicFactor":0,
				"roughnessFactor":0.30000001192092896
			}
		}
	],
	"meshes":[
		{
			"name":"Arch",
			"primitives":[
				{
					"attributes":{
						"POSITION":0,
						"NORMAL":1,
						"TEXCOORD_0":2
					},
					"indices":3,
					"material":0
				}
			]
		},
		{
			"name":"Cabinet",
			"primitives":[
				{
					"attributes":{
						"POSITION":4,
						"NORMAL":5,
						"TEXCOORD_0":6
					},
					"indices":7,
					"material":1
				}
			]
		},
		{
			"name":"Chair",
			"primitives":[
				{
					"attributes":{
						"POSITION":8,
						"NORMAL":9,
						"TEXCOORD_0":10
					},
					"indices":11,
					"material":2
				},
				{
					"attributes":{
						"POSITION":12,
						"NORMAL":13,
						"TEXCOORD_0":14
					},
					"indices":15,
					"material":3
				}
			]
		},
		{
			"name":"poster",
			"primitives":[
				{
					"attributes":{
						"POSITION":16,
						"NORMAL":17,
						"TEXCOORD_0":18
					},
					"indices":19,
					"material":4
				}
			]
		}
	],
	"textures":[
		{
			"sampler":0,
			"source":0
		},
		{
			"sampler":0,
			"source":1
		},
		{
			"sampler":0,
			"source":2
		},
		{
			"sampler":0,
			"source":3
		},
		{
			"sampler":0,
			"source":4
		},
		{
			"sampler":0,
			"source":5
		},
		{
			"sampler":0,
			"source":6
		},
		{
			"sampler":0,
			"source":7
		},
		{
			"sampler":0,
			"source":8
		},
		{
			"sampler":0,
			"source":9
		},
		{
			"sampler":0,
			"source":7
		},
		{
			"sampler":0,
			"source":10
		},
		{
			"sampler":0,
			"source":9
		},
		{
			"sampler":0,
			"source":11
		}
	],
	"images":[
		{
			"mimeType":"image/png",
			"name":"CheckerTile_Normal",
			"uri":"CheckerTile_Normal.png"
		},
		{
			"mimeType":"image/png",
			"name":"CheckerTile_BaseColor",
			"uri":"CheckerTile_BaseColor.png"
		},
		{
			"mimeType":"image/png",
			"name":"CheckerTile_Specular",
			"uri":"CheckerTile_Specular.png"
		},
		{
			"mimeType":"image/png",
			"name":"Cabinet_Emissive",
			"uri":"Cabinet_Emissive.png"
		},
		{
			"mimeType":"image/png",
			"name":"Cabinet_Normal",
			"uri":"Cabinet_Normal.png"
		},
		{
			"mimeType":"image/png",
			"name":"Cabinet_BaseColor",
			"uri":"Cabinet_BaseColor.png"
		},
		{
			"mimeType":"image/png",
			"name":"Cabinet_Specular",
			"uri":"Cabinet_Specular.png"
		},
		{
			"mimeType":"image/png",
			"name":"Chair_Normal",
			"uri":"Chair_Normal.png"
		},
		{
			"mimeType":"image/png",
			"name":"Chair_Orange_BaseColor",
			"uri":"Chair_Orange_BaseColor.png"
		},
		{
			"mimeType":"image/png",
			"name":"Chair_Specular",
			"uri":"Chair_Specular.png"
		},
		{
			"mimeType":"image/png",
			"name":"Chair_Blue_BaseColor",
			"uri":"Chair_Blue_BaseColor.png"
		},
		{
			"mimeType":"image/png",
			"name":"Poster_BaseColor",
			"uri":"Poster_BaseColor.png"
		}
	],
	"accessors":[
		{
			"bufferView":0,
			"componentType":5126,
			"count":16,
			"max":[
				0.009999999776482582,
				0.02499999850988388,
				0.027499999850988388
			],
			"min":[
				-0.027499999850988388,
				0,
				-0.009999999776482582
			],
			"type":"VEC3"
		},
		{
			"bufferView":1,
			"componentType":5126,
			"count":16,
			"type":"VEC3"
		},
		{
			"bufferView":2,
			"componentType":5126,
			"count":16,
			"type":"VEC2"
		},
		{
			"bufferView":3,
			"componentType":5123,
			"count":30,
			"type":"SCALAR"
		},
		{
			"bufferView":4,
			"componentType":5126,
			"count":3201,
			"max":[
				0.0098625048995018,
				0.017241714522242546,
				0.00011250539682805538
			],
			"min":[
				-6.250524893403053e-05,
				-1.0692073892926146e-09,
				-0.00981250498443842
			],
			"type":"VEC3"
		},
		{
			"bufferView":5,
			"componentType":5126,
			"count":3201,
			"type":"VEC3"
		},
		{
			"bufferView":6,
			"componentType":5126,
			"count":3201,
			"type":"VEC2"
		},
		{
			"bufferView":7,
			"componentType":5123,
			"count":11892,
			"type":"SCALAR"
		},
		{
			"bufferView":8,
			"componentType":5126,
			"count":1517,
			"max":[
				-0.0069485860876739025,
				0.008027314208447933,
				-0.002397586591541767
			],
			"min":[
				-0.013051412999629974,
				-7.445868921429621e-11,
				-0.009546151384711266
			],
			"type":"VEC3"
		},
		{
			"bufferView":9,
			"componentType":5126,
			"count":1517,
			"type":"VEC3"
		},
		{
			"bufferView":10,
			"componentType":5126,
			"count":1517,
			"type":"VEC2"
		},
		{
			"bufferView":11,
			"componentType":5123,
			"count":5352,
			"type":"SCALAR"
		},
		{
			"bufferView":12,
			"componentType":5126,
			"count":1562,
			"max":[
				0.008584821596741676,
				0.008027314208447933,
				0.006908489391207695
			],
			"min":[
				0.002215178217738867,
				-7.445868921429621e-11,
				0.0020915097557008266
			],
			"type":"VEC3"
		},
		{
			"bufferView":13,
			"componentType":5126,
			"count":1562,
			"type":"VEC3"
		},
		{
			"bufferView":14,
			"componentType":5126,
			"count":1562,
			"type":"VEC2"
		},
		{
			"bufferView":15,
			"componentType":5123,
			"count":5352,
			"type":"SCALAR"
		},
		{
			"bufferView":16,
			"componentType":5126,
			"count":153,
			"max":[
				0.009993301704525948,
				0.01955290138721466,
				0.015428999438881874
			],
			"min":[
				0.009820393286645412,
				0.009138897061347961,
				0.008570998907089233
			],
			"type":"VEC3"
		},
		{
			"bufferView":17,
			"componentType":5126,
			"count":153,
			"type":"VEC3"
		},
		{
			"bufferView":18,
			"componentType":5126,
			"count":153,
			"type":"VEC2"
		},
		{
			"bufferView":19,
			"componentType":5123,
			"count":768,
			"type":"SCALAR"
		}
	],
	"bufferViews":[
		{
			"buffer":0,
			"byteLength":192,
			"byteOffset":0,
			"target":34962
		},
		{
			"buffer":0,
			"byteLength":192,
			"byteOffset":192,
			"target":34962
		},
		{
			"buffer":0,
			"byteLength":128,
			"byteOffset":384,
			"target":34962
		},
		{
			"buffer":0,
			"byteLength":60,
			"byteOffset":512,
			"target":34963
		},
		{
			"buffer":0,
			"byteLength":38412,
			"byteOffset":572,
			"target":34962
		},
		{
			"buffer":0,
			"byteLength":38412,
			"byteOffset":38984,
			"target":34962
		},
		{
			"buffer":0,
			"byteLength":25608,
			"byteOffset":77396,
			"target":34962
		},
		{
			"buffer":0,
			"byteLength":23784,
			"byteOffset":103004,
			"target":34963
		},
		{
			"buffer":0,
			"byteLength":18204,
			"byteOffset":126788,
			"target":34962
		},
		{
			"buffer":0,
			"byteLength":18204,
			"byteOffset":144992,
			"target":34962
		},
		{
			"buffer":0,
			"byteLength":12136,
			"byteOffset":163196,
			"target":34962
		},
		{
			"buffer":0,
			"byteLength":10704,
			"byteOffset":175332,
			"target":34963
		},
		{
			"buffer":0,
			"byteLength":18744,
			"byteOffset":186036,
			"target":34962
		},
		{
			"buffer":0,
			"byteLength":18744,
			"byteOffset":204780,
			"target":34962
		},
		{
			"buffer":0,
			"byteLength":12496,
			"byteOffset":223524,
			"target":34962
		},
		{
			"buffer":0,
			"byteLength":10704,
			"byteOffset":236020,
			"target":34963
		},
		{
			"buffer":0,
			"byteLength":1836,
			"byteOffset":246724,
			"target":34962
		},
		{
			"buffer":0,
			"byteLength":1836,
			"byteOffset":248560,
			"target":34962
		},
		{
			"buffer":0,
			"byteLength":1224,
			"byteOffset":250396,
			"target":34962
		},
		{
			"buffer":0,
			"byteLength":1536,
			"byteOffset":251620,
			"target":34963
		}
	],
	"samplers":[
		{
			"magFilter":9729,
			"minFilter":9987
		}
	],
	"buffers":[
		{
			"byteLength":253156,
			"uri":"arcade.bin"
		}
	]
}
