# Blender 4.2.2 LTS
# www.blender.org
mtllib mdf_test4.mtl
o Plane
v -2.985130 0.000000 2.985130
v 2.985130 0.000000 2.985130
v -2.985130 0.000000 -2.985130
v 2.985130 0.000000 -2.985130
v -2.985130 3.537925 -2.985130
v 2.985130 3.537925 -2.985130
v 2.985130 2.956000 2.985130
v 2.985130 2.956000 -2.985130
vn -0.0000 1.0000 -0.0000
vn -0.0000 -0.0000 1.0000
vn -1.0000 -0.0000 -0.0000
vt 0.000000 0.000000
vt 1.000000 0.000000
vt 1.000000 1.000000
vt 0.000000 1.000000
s 0
f 1/1/1 2/2/1 4/3/1 3/4/1
f 3/4/2 4/3/2 6/3/2 5/4/2
f 4/3/3 2/2/3 7/2/3 8/3/3
