# Blender 4.2.2 LTS
# www.blender.org
mtllib mdf_test5.mtl
o Plane
v -1.000000 0.000000 1.000000
v 1.000000 0.000000 1.000000
v -1.000000 0.000000 -1.000000
v 1.000000 0.000000 -1.000000
vn -0.0000 1.0000 -0.0000
vt 0.000000 0.000000
vt 1.000000 0.000000
vt 1.000000 1.000000
vt 0.000000 1.000000
s 0
usemtl Material.002
f 1/1/1 2/2/1 4/3/1 3/4/1
o Plane.001
v 0.000000 -1.000000 -1.788672
v -0.000000 1.000000 -1.788672
v 0.000000 -1.000000 -3.788672
v -0.000000 1.000000 -3.788672
vn -1.0000 -0.0000 -0.0000
vt 0.000000 0.000000
vt 1.000000 0.000000
vt 1.000000 1.000000
vt 0.000000 1.000000
s 0
usemtl Material.001
f 5/5/2 6/6/2 8/7/2 7/8/2
o Plane.002
v 1.000000 -1.000000 2.696887
v 1.000000 1.000000 2.696887
v -1.000000 -1.000000 2.696887
v -1.000000 1.000000 2.696887
vn -0.0000 -0.0000 1.0000
vt 0.000000 0.000000
vt 1.000000 0.000000
vt 1.000000 1.000000
vt 0.000000 1.000000
s 0
usemtl Material.003
f 9/9/3 10/10/3 12/11/3 11/12/3
