# Blender 4.2.2 LTS
# www.blender.org
mtllib mdf_test4_3.mtl
o Arch
v 1.000000 0.000000 -1.000000
v 1.000000 2.500000 -1.000000
v -2.750000 0.000000 -1.000000
v -2.750000 2.500000 -1.000000
v 1.000000 2.500000 2.750000
v 1.000000 2.500000 -1.000000
v 1.000000 0.000000 2.750000
v 1.000000 0.000000 -1.000000
v -2.750000 0.000000 1.500000
v -2.125000 0.000000 1.500000
v -2.750000 0.000000 -1.000000
v -1.500000 0.000000 2.125000
v -2.125000 0.000000 2.125000
v 1.000000 0.000000 2.750000
v -1.500000 0.000000 2.750000
v 1.000000 0.000000 -1.000000
vn -0.0000 -0.0000 1.0000
vn -1.0000 -0.0000 -0.0000
vn -0.0000 1.0000 -0.0000
vt 0.995000 0.005000
vt 0.995000 0.995000
vt -0.490000 0.005000
vt -0.490000 0.995000
vt 1.490000 0.995000
vt 0.005000 0.995000
vt 1.490000 0.005000
vt 0.005000 0.005000
vt 0.750000 0.250000
vt 1.000000 0.250000
vt 0.750000 1.250000
vt 1.250000 -0.000000
vt 1.000000 -0.000000
vt 2.250000 -0.250000
vt 1.250000 -0.250000
vt 2.250000 1.250000
s 0
usemtl Material.008
f 1/1/1 2/2/1 3/3/1
f 2/2/1 4/4/1 3/3/1
f 5/5/2 6/6/2 7/7/2
f 6/6/2 8/8/2 7/7/2
f 9/9/3 10/10/3 11/11/3
f 10/10/3 12/12/3 11/11/3
f 13/13/3 12/12/3 10/10/3
f 12/12/3 14/14/3 11/11/3
f 15/15/3 14/14/3 12/12/3
f 14/14/3 16/16/3 11/11/3
